<svg width="147" height="64" viewBox="0 0 147 64" fill="none" xmlns="http://www.w3.org/2000/svg">
<path d="M141.759 4.45904C144.492 7.00781 145.89 10.4999 146.035 14.2041C146.039 14.6847 146.039 15.1653 146.036 15.6459C146.041 15.8787 146.045 16.1114 146.049 16.3513C146.047 20.4186 144.728 24.3964 143.655 28.284C143.5 28.8451 143.347 29.4066 143.193 29.968C142.681 31.84 142.166 33.711 141.649 35.5817C141.505 36.103 141.362 36.6243 141.218 37.1456C139.909 41.8932 138.597 46.6402 137.277 51.3849C136.988 52.4216 136.702 53.4587 136.417 54.4963C136.223 55.2017 136.028 55.9069 135.833 56.6121C135.74 56.9471 135.648 57.2822 135.557 57.6175C135.43 58.0791 135.303 58.5403 135.175 59.0015C135.103 59.2635 135.031 59.5255 134.956 59.7955C134.75 60.4328 134.75 60.4328 134.328 61.0623C133.683 61.1223 133.082 61.1416 132.438 61.1338C132.144 61.1339 132.144 61.1339 131.844 61.1341C131.195 61.1336 130.546 61.1287 129.897 61.1238C129.448 61.1226 128.999 61.1217 128.549 61.1211C127.365 61.1187 126.181 61.1125 124.997 61.1055C123.79 61.0991 122.582 61.0962 121.375 61.0931C119.004 61.0863 116.633 61.0756 114.263 61.0623C114.363 60.0533 114.464 59.0696 114.734 58.0889C114.787 57.8933 114.84 57.6977 114.894 57.4962C114.982 57.18 114.982 57.18 115.072 56.8574C115.136 56.6252 115.199 56.3931 115.264 56.1539C115.442 55.5051 115.62 54.8568 115.799 54.2085C115.993 53.5077 116.184 52.8064 116.376 52.1052C116.729 50.8151 117.083 49.5252 117.437 48.2356C118.498 44.3785 119.556 40.5207 120.613 36.6626C121.016 35.1942 121.419 33.7261 121.823 32.258C122.079 31.3289 122.333 30.3997 122.588 29.4704C122.708 29.0345 122.828 28.5987 122.948 28.1629C123.114 27.56 123.279 26.9567 123.445 26.3535C123.493 26.1796 123.541 26.0058 123.59 25.8268C124.101 23.954 124.488 22.0831 124.612 20.1443C124.633 19.8384 124.633 19.8384 124.654 19.5263C124.723 17.6818 124.345 16.211 123.213 14.7279C122.055 13.4897 120.448 12.9022 118.786 12.75C115.984 12.676 113.532 13.4185 111.306 15.1082C111.059 15.2924 111.059 15.2924 110.808 15.4804C106.608 18.8905 104.885 24.8585 103.464 29.8246C103.399 30.0506 103.399 30.0506 103.333 30.2812C101.711 35.9365 100.186 41.6195 98.639 47.2952C98.0628 49.4087 97.4863 51.5222 96.909 53.6354C96.6783 54.4798 96.448 55.3243 96.2182 56.1689C96.0434 56.8107 95.868 57.4523 95.6927 58.0939C95.6296 58.3262 95.5666 58.5584 95.5016 58.7976C95.4439 59.0083 95.3863 59.219 95.3269 59.436C95.2768 59.6195 95.2268 59.803 95.1753 59.9921C95.0431 60.4328 95.0431 60.4328 94.8318 60.8525C89.953 60.8525 85.0741 60.8525 80.0474 60.8525C80.6089 60.2946 81.066 59.9684 81.737 59.5672C86.0802 56.8441 89.0923 52.8801 90.3825 47.9246C91.4382 43.2473 91.3096 38.5893 88.852 34.341C87.3913 32.0567 85.4664 30.2547 83.2155 28.7476C83.6952 26.7907 84.2022 24.8421 84.7335 22.8984C84.7888 22.6951 84.8441 22.4918 84.9011 22.2823C84.9533 22.0923 85.0056 21.9023 85.0594 21.7066C85.106 21.5368 85.1526 21.3669 85.2006 21.1919C85.3275 20.7738 85.3275 20.7738 85.5387 20.3541C88.954 20.3541 92.3692 20.3541 95.8879 20.3541C96.2251 14.994 96.3805 10.4839 92.931 6.08527C92.8264 5.94922 92.7219 5.81316 92.6142 5.67298C91.9382 4.83898 91.2172 4.2661 90.2991 3.70413C89.9741 3.35741 89.9741 3.35741 89.9741 2.09839C96.5954 2.09839 103.217 2.09839 110.039 2.09839C109.776 3.40557 109.507 4.67505 109.152 5.95495C109.066 6.27229 108.979 6.58964 108.893 6.907C108.759 7.39894 108.624 7.89077 108.488 8.38246C108.357 8.86262 108.226 9.34318 108.096 9.8238C108.054 9.97219 108.013 10.1206 107.971 10.2735C107.876 10.6237 107.794 10.9772 107.715 11.3312C107.785 11.4004 107.855 11.4697 107.927 11.541C108.043 11.4031 108.043 11.4031 108.161 11.2623C112.994 5.63751 119.125 2.02432 126.513 0.839372C126.678 0.811782 126.843 0.784192 127.013 0.755766C132.19 0.037609 137.729 1.03391 141.759 4.45904Z" fill="white"/>
<path d="M34.708 0.602484C41.7152 0.473722 49.7078 1.27942 55.0193 6.28199C58.5035 9.95917 58.293 13.6515 58.293 18.6754C52.4383 18.6754 46.5837 18.6754 40.5516 18.6754C40.4819 17.7752 40.4122 16.875 40.3404 15.9476C40.022 14.4854 39.5766 13.1774 38.4396 12.1705C36.2188 10.8575 34.0076 10.6201 31.4714 11.0082C29.6505 11.4873 28.3922 12.4732 27.4378 14.0738C26.7819 15.4555 26.8435 17.1673 27.272 18.6099C28.2614 21.1441 30.4182 22.4955 32.7922 23.6525C32.9381 23.7242 33.084 23.796 33.2343 23.8699C34.9549 24.7124 36.6902 25.5241 38.4264 26.3344C38.7469 26.4844 39.0674 26.6344 39.3879 26.7844C39.5464 26.8586 39.7048 26.9327 39.8681 27.0091C40.1852 27.1575 40.5023 27.306 40.8194 27.4545C41.6231 27.8306 42.4279 28.2042 43.2347 28.5738C43.4767 28.6853 43.4767 28.6853 43.7235 28.799C44.0279 28.9391 44.3327 29.0785 44.6379 29.2169C45.9331 29.8149 47.0518 30.5738 48.1551 31.4754C48.3239 31.6091 48.4927 31.7427 48.6666 31.8804C50.5303 33.4275 51.7303 35.3163 52.5904 37.5607C52.6921 37.8224 52.6921 37.8224 52.7958 38.0894C54.1737 42.438 53.2065 47.6676 51.2044 51.6459C50.3681 53.1538 49.3573 54.3744 48.1551 55.6066C47.968 55.8192 47.968 55.8192 47.7772 56.0361C43.6386 60.5644 36.2974 62.3226 30.4137 62.741C28.7601 62.8157 27.1053 62.8124 25.4503 62.8066C25.2255 62.8062 25.0007 62.8058 24.769 62.8054C21.5458 62.7962 18.3766 62.7525 15.2068 62.1115C15.0234 62.0755 14.8401 62.0395 14.6511 62.0024C11.3247 61.3251 8.17125 60.2603 5.49128 58.1246C5.283 57.9629 5.07472 57.8011 4.86013 57.6344C2.4056 55.5838 1.44956 52.5259 0.844727 49.5213C0.844727 47.444 0.844727 45.3666 0.844727 43.2263C6.76908 43.2263 12.6934 43.2263 18.7973 43.2263C18.9019 44.6804 18.9019 44.6804 19.0085 46.164C19.4471 48.2736 20.1241 50.0613 21.8994 51.3967C24.0648 52.7561 26.5381 53.0185 29.0334 52.5238C31.1779 51.9296 32.8089 51.0754 33.972 49.1451C34.8139 47.5432 34.9227 45.6447 34.4926 43.8943C33.0674 40.0297 28.5868 38.6166 25.1335 36.9705C22.6905 35.8022 20.2522 34.628 17.8461 33.3861C17.6656 33.2937 17.4851 33.2012 17.2991 33.106C15.8458 32.3488 14.5703 31.4692 13.3059 30.4263C13.1826 30.3351 13.0593 30.2439 12.9322 30.15C10.3048 28.1734 8.78434 25.0012 8.32855 21.823C7.76207 17.0628 8.90228 12.3933 11.7788 8.5197C13.7937 6.11751 16.3866 4.61345 19.2197 3.3574C19.4381 3.2584 19.6564 3.1594 19.8814 3.0574C24.5473 1.10873 29.7142 0.794422 34.708 0.602484Z" fill="white"/>
<path d="M70.8723 0.602475C77.377 0.492445 85.3941 1.1027 90.5154 5.57379C90.8322 5.87971 91.1452 6.1897 91.4526 6.50493C91.5732 6.62287 91.6939 6.7408 91.8181 6.86231C94.1619 9.3286 94.7332 12.6199 94.6735 15.882C94.6724 16.1291 94.6714 16.3762 94.6702 16.6308C94.6535 18.4331 94.6535 18.4331 94.4095 18.6754C93.8633 18.6954 93.3227 18.7018 92.7763 18.6992C92.5198 18.6993 92.5198 18.6993 92.2581 18.6993C91.6901 18.6992 91.1222 18.6976 90.5542 18.6959C90.1614 18.6955 89.7687 18.6952 89.376 18.695C88.3402 18.6942 87.3045 18.6922 86.2687 18.6898C85.2126 18.6877 84.1565 18.6867 83.1005 18.6857C81.0268 18.6834 78.9531 18.6798 76.8794 18.6754C76.8551 18.4342 76.8309 18.193 76.806 17.9444C76.7714 17.6228 76.7367 17.3011 76.702 16.9795C76.6864 16.8211 76.6707 16.6628 76.6547 16.4996C76.4714 14.8437 75.9961 13.3346 74.7359 12.1713C72.6872 10.7229 70.2226 10.6339 67.8016 11.009C66.1757 11.4323 64.9214 12.2697 64.0089 13.6787C63.2251 15.0171 63.2357 16.317 63.3621 17.8361C63.5488 18.5347 63.8292 19.1089 64.2069 19.7246C64.2941 19.8688 64.3812 20.0129 64.4709 20.1615C65.6143 21.8492 67.2996 22.7561 69.0993 23.6394C69.2453 23.7114 69.3912 23.7834 69.5416 23.8576C71.3423 24.7422 73.1606 25.5902 74.9785 26.4394C76.9458 27.3582 78.9118 28.2788 80.8593 29.2385C80.9953 29.3051 81.1312 29.3716 81.2713 29.4401C82.4271 30.0142 83.467 30.6852 84.4828 31.4754C84.6268 31.5817 84.7709 31.688 84.9192 31.7976C87.531 33.8643 89.073 37.0551 89.5518 40.2885C89.6108 41.0329 89.6225 41.7716 89.6178 42.518C89.6166 42.719 89.6154 42.92 89.6142 43.1271C89.5301 48.0754 87.7769 52.2763 84.2716 55.8164C84.1134 55.9763 83.9552 56.1361 83.7923 56.3008C80.7287 59.2133 76.8194 60.7678 72.7608 61.7574C72.5531 61.8083 72.3454 61.8592 72.1314 61.9116C68.6553 62.7097 65.212 62.8194 61.6593 62.8066C61.44 62.8062 61.2207 62.8058 60.9947 62.8054C55.6725 62.7898 50.1024 62.5181 45.1983 60.223C45.1983 60.0152 45.1983 59.8075 45.1983 59.5935C45.7008 59.1631 45.7008 59.1631 46.3732 58.6885C46.608 58.5189 46.8425 58.3489 47.0769 58.1787C47.2934 58.0224 47.5098 57.866 47.7328 57.7049C52.3124 54.2604 53.9473 48.6202 54.7026 43.2262C54.842 43.2262 54.9814 43.2262 55.125 43.2262C55.1305 43.4218 55.1359 43.6174 55.1415 43.8189C55.262 46.5087 55.6357 49.0207 57.6595 50.9902C59.4176 52.463 61.6381 52.7979 63.8769 52.7418C66.2191 52.5147 68.0975 51.6888 69.6587 49.941C70.8687 48.2924 71.1537 46.7015 70.9656 44.6951C70.4436 42.4846 69.4791 41.2656 67.573 40.0656C65.4013 38.7912 63.0884 37.765 60.8135 36.6878C59.396 36.0156 57.984 35.3328 56.5766 34.64C56.3092 34.5088 56.0415 34.3781 55.7735 34.2482C51.5221 32.1868 47.2778 29.4581 45.4013 24.9492C44.8701 23.3574 44.5647 21.821 44.5647 20.1443C49.5133 20.1443 54.4619 20.1443 59.5604 20.1443C59.6753 12.1465 59.6753 12.1465 55.875 5.55002C55.5391 5.22157 55.1995 4.89682 54.8553 4.57706C54.4914 4.19674 54.4914 4.19674 54.4914 3.77707C59.6656 1.41992 65.2477 0.8049 70.8723 0.602475Z" fill="white"/>
</svg>
